<svg width="24" height="24" fill="none" xmlns="http://www.w3.org/2000/svg"><path d="M12 8.095A3.914 3.914 0 008.095 12 3.914 3.914 0 0012 15.905 3.914 3.914 0 0015.905 12 3.914 3.914 0 0012 8.095zM23.713 12c0-1.617.014-3.22-.076-4.834-.091-1.875-.519-3.54-1.89-4.91C20.373.882 18.712.457 16.837.366 15.22.276 13.617.29 12.003.29c-1.617 0-3.22-.015-4.834.076-1.875.091-3.54.519-4.91 1.89C.885 3.63.459 5.29.369 7.166.279 8.783.293 10.386.293 12c0 1.614-.015 3.22.076 4.834.09 1.875.519 3.539 1.89 4.91 1.374 1.374 3.035 1.799 4.91 1.89 1.617.09 3.22.076 4.834.076 1.617 0 3.22.015 4.834-.076 1.875-.091 3.539-.519 4.91-1.89 1.374-1.374 1.799-3.035 1.89-4.91.093-1.614.076-3.217.076-4.834zM12 18.009A6 6 0 015.99 12 6 6 0 0112 5.991 6 6 0 0118.009 12a6 6 0 01-6.01 6.009zm6.255-10.86a1.402 1.402 0 01-1.403-1.404 1.4 1.4 0 011.403-1.403 1.402 1.402 0 01.993 2.396 1.402 1.402 0 01-.993.41z" fill="#252525"/></svg>