<svg width="24" height="24" fill="none" xmlns="http://www.w3.org/2000/svg"><g clip-path="url(#clip0_35_265)"><path d="M24 2.843c-.668 1.224-1.488 2.267-2.46 3.13a21.101 21.101 0 01-.561 5.651 19.433 19.433 0 01-1.759 4.664 17.805 17.805 0 01-2.819 3.947c-1.09 1.147-2.4 2.06-3.931 2.742C10.939 23.66 9.298 24 7.548 24 4.816 24 2.3 23.092 0 21.276c.408.056.8.084 1.174.084 2.283 0 4.321-.865 6.116-2.596-1.064-.024-2.017-.427-2.86-1.21-.841-.782-1.42-1.782-1.737-3a4.017 4.017 0 002.223-.101c-1.136-.28-2.078-.976-2.826-2.089C1.34 11.251.967 9.967.967 8.511v-.075c.697.476 1.44.728 2.23.759-.672-.552-1.206-1.272-1.6-2.16a7.024 7.024 0 01-.59-2.883c0-1.09.221-2.105.665-3.046 1.235 1.866 2.732 3.357 4.49 4.474 1.757 1.116 3.643 1.737 5.657 1.86-.086-.44-.129-.9-.129-1.38 0-1.672.481-3.1 1.443-4.284C14.095.592 15.255 0 16.613 0c1.423 0 2.621.638 3.595 1.913A8.784 8.784 0 0023.334.441c-.374 1.45-1.095 2.567-2.163 3.354A8.452 8.452 0 0024 2.843z" fill="#252525"/></g><defs><clipPath id="clip0_35_265"><path fill="#fff" d="M0 0h24v24H0z"/></clipPath></defs></svg>